# xmcd
#
# Track frame offsets: 
#        150
#        14502
#        28372
#        41184
#        54460
#        68381
#        81607
#        95397
#        108625
#        123675
#        135328
#        147978
#        162848
#        177477
#        191299
#        204999
#        218609
#        231639
#        246089
#        259748
#        274516
#        287844
#        302837
#        318314
#
# Disc length: 4432 seconds
#
# Revision: 0
# Processed by: cddbd v1.5.2PL0 Copyright (c) Steve Scherf et al.
# Submitted via: ExactAudioCopyFreeDBPlugin 1.0
#
DISCID=68114e18
DTITLE=Texas Alexander and His Circle  - 1927-1951 Authentic Early Texas
DTITLE=Country Blues CD 1
DYEAR=2017
DGENRE=Texas Blues
TTITLE0=Range in My Kitchen Blues
TTITLE1=Long Lonesome Day Blues
TTITLE2=Corn-Bread Blues
TTITLE3=Section Gang Blues
TTITLE4=Levee Camp Moan Blues
TTITLE5=Mama, I Heard You Brought It Right Back Home
TTITLE6=Farm Hand Blues
TTITLE7=Evil Woman Blues
TTITLE8=Sabine River Blues
TTITLE9=Death Bed Blues
TTITLE10=Yellow Girl Blues
TTITLE11=West Texas Blues
TTITLE12=Bantam Rooster Blues
TTITLE13=Deep Blue Sea Blues
TTITLE14=No More Woman Blues
TTITLE15=Don't You Wish Your Baby Was Built Up Like Mine
TTITLE16=Bell Cow Blues
TTITLE17=Bantam Rooster Blues [Take B]
TTITLE18=Sittin' on a Log
TTITLE19=Mama's Bad Luck Child
TTITLE20=Boe Hog Blues
TTITLE21=Work Ox Blues
TTITLE22=The Risin' Sun
TTITLE23=Penitentiary Moan Blues
EXTD=
EXTT0=
EXTT1=
EXTT2=
EXTT3=
EXTT4=
EXTT5=
EXTT6=
EXTT7=
EXTT8=
EXTT9=
EXTT10=
EXTT11=
EXTT12=
EXTT13=
EXTT14=
EXTT15=
EXTT16=
EXTT17=
EXTT18=
EXTT19=
EXTT20=
EXTT21=
EXTT22=
EXTT23=
PLAYORDER=
